<?xml version="1.0" encoding="utf-8"?>
<!-- Generator: Adobe Illustrator 16.0.0, SVG Export Plug-In . SVG Version: 6.00 Build 0)  -->
<!DOCTYPE svg PUBLIC "-//W3C//DTD SVG 1.1//EN" "http://www.w3.org/Graphics/SVG/1.1/DTD/svg11.dtd">
<svg version="1.1" id="Layer_1" xmlns="http://www.w3.org/2000/svg" xmlns:xlink="http://www.w3.org/1999/xlink" x="0px" y="0px"
	 width="800px" height="800px" viewBox="0 0 800 800" enable-background="new 0 0 800 800" xml:space="preserve">
<path d="M284.751,84.755C284.751,37.934,322.192,0,368.387,0c46.195,0,83.679,37.934,83.679,84.755
	c0,46.843-37.484,84.755-83.679,84.755C322.192,169.51,284.751,131.598,284.751,84.755z M460.432,209.462
	c-12.178-9.548-24.788-17.719-39.436-22.852c-13.607-4.774-27.908-7.444-42.252-8.431l21.603,229.698l-31.18,37.022l-35.622-37.022
	l27.041-230.023c-15.623,0.532-31.331,3.071-46.087,8.409c-6.023,2.17-11.895,4.818-17.442,8.095
	c-9.707,5.75-18.634,12.695-27.084,20.279c-41.688,37.425-64.266,102.4-69.033,198.623c-0.823,16.505,11.7,30.556,27.994,31.381
	c0.498,0.032,0.997,0.043,1.517,0.043c15.6,0,28.644-12.413,29.446-28.406c3.229-65.181,16.013-113.782,36.943-142.721
	c-1.495,30.329-4.16,85.342-6.543,141.537c-0.152,1.021-0.433,1.986-0.52,3.027l-23.575,337.978
	c-1.517,21.365,14.387,39.898,35.449,41.418c0.931,0.064,1.863,0.098,2.751,0.098c19.913,0,36.705-15.614,38.135-36.046
	l18.57-266.093c2.946-0.824,5.807-1.562,8.298-1.562c2.925,0,5.741,0.531,8.602,0.889l17.183,268.935
	C396.512,784.246,413.326,800,433.346,800c0.824,0,1.67-0.021,2.514-0.074c21.104-1.39,37.073-19.836,35.708-41.212l-20.41-319.356
	c-0.087-1.78-0.499-3.463-0.823-5.145c-1.712-48.894-7.237-121.278-10.4-160.613c21.364,28.982,33.412,77.084,34.732,141.787
	c0.325,16.309,13.477,29.297,30.14,29.286c16.294-0.336,29.229-13.997,28.906-30.524
	C531.696,314.877,507.038,246.008,460.432,209.462z M650.867,674.349V456.056h5.502c21.366,0,38.656-17.253,38.656-38.51
	c0-21.234-17.29-38.465-38.656-38.465h-16.683v0.086h-33.52v-84.614c17.159-5.045,29.77-20.747,29.77-39.562
	c0-22.862-18.503-41.406-41.34-41.406c-22.838,0-41.342,18.544-41.342,41.406c0,18.814,12.61,34.538,29.793,39.562v84.614H513.04
	v-0.086h-40.454h-13.563H332.397h-13.261h-51.395H167.27H134.14c-21.364,0-38.655,17.231-38.655,38.465
	c0,21.257,17.291,38.51,38.655,38.51h18.114v218.293H45V800h710V674.349H650.867z"/>
</svg>
